<svg width="197" height="197" viewBox="0 0 197 197" fill="none" xmlns="http://www.w3.org/2000/svg">
<g filter="url(#filter0_d_1_2)">
<rect x="4" width="189" height="189" rx="47" fill="black"/>
<rect x="5" y="1" width="187" height="187" rx="46" stroke="black" stroke-width="2"/>
<path d="M70.1086 131.2C64.7086 131.2 59.6753 130.333 55.0086 128.6C50.4086 126.8 46.4086 124.267 43.0086 121C39.6086 117.733 36.9419 113.9 35.0086 109.5C33.1419 105.1 32.2086 100.267 32.2086 95C32.2086 89.7333 33.1419 84.9 35.0086 80.5C36.9419 76.1 39.6086 72.2667 43.0086 69C46.4753 65.7333 50.5086 63.2333 55.1086 61.5C59.7086 59.7 64.7419 58.8 70.2086 58.8C76.2753 58.8 81.7419 59.8667 86.6086 62C91.5419 64.0667 95.6753 67.1333 99.0086 71.2L88.6086 80.8C86.2086 78.0667 83.5419 76.0333 80.6086 74.7C77.6753 73.3 74.4753 72.6 71.0086 72.6C67.7419 72.6 64.7419 73.1333 62.0086 74.2C59.2753 75.2667 56.9086 76.8 54.9086 78.8C52.9086 80.8 51.3419 83.1667 50.2086 85.9C49.1419 88.6333 48.6086 91.6667 48.6086 95C48.6086 98.3333 49.1419 101.367 50.2086 104.1C51.3419 106.833 52.9086 109.2 54.9086 111.2C56.9086 113.2 59.2753 114.733 62.0086 115.8C64.7419 116.867 67.7419 117.4 71.0086 117.4C74.4753 117.4 77.6753 116.733 80.6086 115.4C83.5419 114 86.2086 111.9 88.6086 109.1L99.0086 118.7C95.6753 122.767 91.5419 125.867 86.6086 128C81.7419 130.133 76.2419 131.2 70.1086 131.2ZM140.648 130.8C136.115 130.8 132.148 129.8 128.748 127.8C125.348 125.8 122.682 122.767 120.748 118.7C118.882 114.567 117.948 109.367 117.948 103.1C117.948 96.7667 118.848 91.5667 120.648 87.5C122.448 83.4333 125.048 80.4 128.448 78.4C131.848 76.4 135.915 75.4 140.648 75.4C145.715 75.4 150.248 76.5667 154.248 78.9C158.315 81.1667 161.515 84.3667 163.848 88.5C166.248 92.6333 167.448 97.5 167.448 103.1C167.448 108.767 166.248 113.667 163.848 117.8C161.515 121.933 158.315 125.133 154.248 127.4C150.248 129.667 145.715 130.8 140.648 130.8ZM108.848 149.4V76.2H123.748V87.2L123.448 103.2L124.448 119.1V149.4H108.848ZM137.948 118C140.548 118 142.848 117.4 144.848 116.2C146.915 115 148.548 113.3 149.748 111.1C151.015 108.833 151.648 106.167 151.648 103.1C151.648 99.9667 151.015 97.3 149.748 95.1C148.548 92.9 146.915 91.2 144.848 90C142.848 88.8 140.548 88.2 137.948 88.2C135.348 88.2 133.015 88.8 130.948 90C128.882 91.2 127.248 92.9 126.048 95.1C124.848 97.3 124.248 99.9667 124.248 103.1C124.248 106.167 124.848 108.833 126.048 111.1C127.248 113.3 128.882 115 130.948 116.2C133.015 117.4 135.348 118 137.948 118Z" fill="white"/>
</g>
<defs>
<filter id="filter0_d_1_2" x="0" y="0" width="197" height="197" filterUnits="userSpaceOnUse" color-interpolation-filters="sRGB">
<feFlood flood-opacity="0" result="BackgroundImageFix"/>
<feColorMatrix in="SourceAlpha" type="matrix" values="0 0 0 0 0 0 0 0 0 0 0 0 0 0 0 0 0 0 127 0" result="hardAlpha"/>
<feOffset dy="4"/>
<feGaussianBlur stdDeviation="2"/>
<feComposite in2="hardAlpha" operator="out"/>
<feColorMatrix type="matrix" values="0 0 0 0 0 0 0 0 0 0 0 0 0 0 0 0 0 0 0.25 0"/>
<feBlend mode="normal" in2="BackgroundImageFix" result="effect1_dropShadow_1_2"/>
<feBlend mode="normal" in="SourceGraphic" in2="effect1_dropShadow_1_2" result="shape"/>
</filter>
</defs>
</svg>
